<?xml version="1.0" encoding="UTF-8"?>
<svg xmlns:xlink="http://www.w3.org/1999/xlink" width="14px" height="14px" viewBox="0 0 14 14" version="1.1" xmlns="http://www.w3.org/2000/svg">
    <!-- Generator: sketchtool 41.2 (35397) - http://www.bohemiancoding.com/sketch -->
    <title>4DE4C57C-D05F-48ED-B394-C4A77531561E</title>
    <desc>Created with sketchtool.</desc>
    <defs></defs>
    <g id="Action-Items" stroke="none" stroke-width="1" fill="none" fill-rule="evenodd">
        <g id="to-dos-with-Space-name" transform="translate(-645.000000, -456.000000)" fill="#0000ff">
            <g id="near-term-request-item---right-rail" transform="translate(560.000000, 343.000000)">
                <g id="Group" transform="translate(72.000000, 71.000000)">
                    <path d="M25.3039635,43 L21.4910052,43 C21.2198305,43 21,42.7680664 21,42.5 C21,42.2238576 21.2278805,42 21.4910052,42 L26.5089948,42 C26.6430656,42 26.7645859,42.0566936 26.8531938,42.1464178 C26.8999289,42.1936133 26.9352365,42.2451277 26.959958,42.3015601 C26.9970737,42.3840082 27.0105569,42.4746057 27,42.5636393 L27,47.5089948 C27,47.7801695 26.7680664,48 26.5,48 C26.2238576,48 26,47.7721195 26,47.5089948 L26,43.718177 L21.2074943,48.5106827 C21.0084575,48.7097196 20.6831044,48.707069 20.4935528,48.5175175 C20.2982906,48.3222553 20.2973117,48.0066518 20.5003876,47.8035759 L25.3039635,43 Z M27,55.5023012 C27,55.7771727 26.7800934,56 26.5017326,56 L14.0068455,56 C13.4507801,56 13,55.5500512 13,54.9931545 L13,43.0068455 C13,42.4507801 13.4437166,42 13.9998075,42 L17.5023012,42 C17.7771727,42 18,42.2319336 18,42.5 C18,42.7761424 17.7849426,43 17.5095215,43 L14,43 L14,55 L26,55 L26,51.4904785 C26,51.2195947 26.2319336,51 26.5,51 C26.7761424,51 27,51.2148438 27,51.4976988 L27,55.5023012 Z" id="Combined-Shape"></path>
                </g>
            </g>
        </g>
    </g>
</svg>
